<?xml version="1.0" encoding="UTF-8"?>
<svg width="13px" height="17px" viewBox="0 0 13 17" version="1.1" xmlns="http://www.w3.org/2000/svg" xmlns:xlink="http://www.w3.org/1999/xlink">
    <!-- Generator: Sketch 50.2 (55047) - http://www.bohemiancoding.com/sketch -->
    <title>delete-button</title>
    <desc>Created with Sketch.</desc>
    <defs></defs>
    <g id="Page-1" stroke="none" stroke-width="1" fill="none" fill-rule="evenodd">
        <g id="Desktop" transform="translate(-661.000000, -235.000000)" fill="#5E565A" fill-rule="nonzero">
            <g id="Group-Copy-4" transform="translate(330.000000, 215.000000)">
                <g id="delete-button" transform="translate(331.000000, 20.000000)">
                    <path d="M11.163527,1.94688493 L8.66115724,1.94688493 C8.53632866,0.852736879 7.61537633,0 6.49998334,0 C5.38462367,0 4.46380463,0.852703196 4.33897606,1.94688493 L1.83647297,1.94688493 C0.823781974,1.94688493 0,2.77981579 0,3.80343014 L0,3.89868768 C0,4.68092455 0.481852973,5.35045571 1.16064585,5.62326011 L1.16064585,14.3934548 C1.16064585,15.4171028 1.9845278,16.25 2.99715215,16.25 L10.0028812,16.25 C11.0155388,16.25 11.8393541,15.4170355 11.8393541,14.3934548 L11.8393541,5.62329379 C12.5181137,5.35045571 13,4.68092455 13,3.89872137 L13,3.80346383 C13,2.77981579 12.1761514,1.94688493 11.163527,1.94688493 Z M6.49998334,0.880458575 C7.13435644,0.880458575 7.66386154,1.34007284 7.78102579,1.94688493 L5.21917415,1.94688493 C5.33630508,1.34003916 5.8658435,0.880458575 6.49998334,0.880458575 Z M10.9683199,14.3934548 C10.9683199,14.9316532 10.5351188,15.3695751 10.0028478,15.3695751 L2.99711883,15.3695751 C2.46484791,15.3695751 2.03164675,14.9316195 2.03164675,14.3934548 L2.03164675,5.75523289 L10.9683199,5.75523289 L10.9683199,14.3934548 Z M12.1289658,3.89868768 C12.1289658,4.43688605 11.6957646,4.874808 11.1634937,4.874808 L1.83647297,4.874808 C1.30420205,4.874808 0.8710009,4.43688605 0.8710009,3.89868768 L0.8710009,3.80343014 C0.8710009,3.26523178 1.30420205,2.82730982 1.83647297,2.82730982 L11.163527,2.82730982 C11.6957979,2.82730982 12.1289991,3.26523178 12.1289991,3.80343014 L12.1289991,3.89868768 L12.1289658,3.89868768 Z" id="Shape"></path>
                    <path d="M3.65625,14.625 C3.8806216,14.625 4.0625,14.4329026 4.0625,14.196104 L4.0625,9.36646167 C4.0625,9.12963019 3.88059052,8.9375 3.65625,8.9375 C3.43190948,8.9375 3.25,9.12963019 3.25,9.36646167 L3.25,14.196104 C3.24996891,14.4329683 3.4318784,14.625 3.65625,14.625 Z" id="Shape"></path>
                    <path d="M6.09373446,14.625 C6.31809748,14.625 6.5,14.4329026 6.5,14.196104 L6.5,9.36646167 C6.5,9.12963019 6.31803531,8.9375 6.09373446,8.9375 C5.86940252,8.9375 5.6875,9.12963019 5.6875,9.36646167 L5.6875,14.196104 C5.6875,14.4329683 5.86937144,14.625 6.09373446,14.625 Z" id="Shape"></path>
                    <path d="M8.53128109,14.625 C8.7556216,14.625 8.9375,14.4329026 8.9375,14.196104 L8.9375,9.36646167 C8.9375,9.12963019 8.75559052,8.9375 8.53128109,8.9375 C8.3068784,8.9375 8.125,9.12963019 8.125,9.36646167 L8.125,14.196104 C8.12496891,14.4329683 8.30694057,14.625 8.53128109,14.625 Z" id="Shape"></path>
                </g>
            </g>
        </g>
    </g>
</svg>