<?xml version="1.0" encoding="UTF-8"?>
<svg width="20px" height="20px" viewBox="0 0 20 20" version="1.1" xmlns="http://www.w3.org/2000/svg" xmlns:xlink="http://www.w3.org/1999/xlink">
    <!-- Generator: Sketch 50.2 (55047) - http://www.bohemiancoding.com/sketch -->
    <title>Combined Shape</title>
    <desc>Created with Sketch.</desc>
    <defs></defs>
    <g id="Page-1" stroke="none" stroke-width="1" fill="none" fill-rule="evenodd">
        <g id="Desktop" transform="translate(-655.000000, -174.000000)" fill="#FFFFFF">
            <path d="M667,182 L673,182 C674.104569,182 675,182.895431 675,184 C675,185.104569 674.104569,186 673,186 L667,186 L667,192 C667,193.104569 666.104569,194 665,194 C663.895431,194 663,193.104569 663,192 L663,186 L657,186 C655.895431,186 655,185.104569 655,184 C655,182.895431 655.895431,182 657,182 L663,182 L663,176 C663,174.895431 663.895431,174 665,174 C666.104569,174 667,174.895431 667,176 L667,182 Z" id="Combined-Shape"></path>
        </g>
    </g>
</svg>